  0
SECTION
  2
HEADER
  9
$ACADVER
  1
AC1014
  9
$HANDSEED
  5
FFFF
  9
$MEASUREMENT
 70
     1
  0
ENDSEC
  0
SECTION
  2
TABLES
  0
TABLE
  2
VPORT
  5
8
330
0
100
AcDbSymbolTable
 70
     4
  0
VPORT
  5
2E
330
8
100
AcDbSymbolTableRecord
100
AcDbViewportTableRecord
  2
*ACTIVE
 70
     0
 10
0.0
 20
0.0
 11
1.0
 21
1.0
 12
210.0
 22
148.5
 13
0.0
 23
0.0
 14
10.0
 24
10.0
 15
10.0
 25
10.0
 16
0.0
 26
0.0
 36
1.0
 17
0.0
 27
0.0
 37
0.0
 40
341.0
 41
1.24
 42
50.0
 43
0.0
 44
0.0
 50
0.0
 51
0.0
 71
     0
 72
   100
 73
     1
 74
     3
 75
     0
 76
     0
 77
     0
 78
     0
  0
ENDTAB
  0
TABLE
  2
LTYPE
  5
5
330
0
100
AcDbSymbolTable
 70
     1
  0
LTYPE
  5
14
330
5
100
AcDbSymbolTableRecord
100
AcDbLinetypeTableRecord
  2
BYBLOCK
 70
     0
  3

 72
    65
 73
     0
 40
0.0
  0
LTYPE
  5
15
330
5
100
AcDbSymbolTableRecord
100
AcDbLinetypeTableRecord
  2
BYLAYER
 70
     0
  3

 72
    65
 73
     0
 40
0.0
  0
LTYPE
  5
16
330
5
100
AcDbSymbolTableRecord
100
AcDbLinetypeTableRecord
  2
CONTINUOUS
 70
     0
  3
Solid line
 72
    65
 73
     0
 40
0.0
  0
ENDTAB
  0
TABLE
  2
LAYER
  5
2
100
AcDbSymbolTable
 70
2
  0
LAYER
  5
50
100
AcDbSymbolTableRecord
100
AcDbLayerTableRecord
  2
0
 70
0
  6
CONTINUOUS
  0
LAYER
  5
51
100
AcDbSymbolTableRecord
100
AcDbLayerTableRecord
  2
Layer_1
 70
0
  6
CONTINUOUS
  0
ENDTAB
  0
TABLE
  2
STYLE
  5
3
330
0
100
AcDbSymbolTable
 70
     1
  0
STYLE
  5
11
330
3
100
AcDbSymbolTableRecord
100
AcDbTextStyleTableRecord
  2
STANDARD
 70
     0
 40
0.0
 41
1.0
 50
0.0
 71
     0
 42
2.5
  3
txt
  4

  0
ENDTAB
  0
TABLE
  2
VIEW
  5
6
330
0
100
AcDbSymbolTable
 70
     0
  0
ENDTAB
  0
TABLE
  2
UCS
  5
7
330
0
100
AcDbSymbolTable
 70
     0
  0
ENDTAB
  0
TABLE
  2
APPID
  5
9
330
0
100
AcDbSymbolTable
 70
     2
  0
APPID
  5
12
330
9
100
AcDbSymbolTableRecord
100
AcDbRegAppTableRecord
  2
ACAD
 70
     0
  0
ENDTAB
  0
TABLE
  2
DIMSTYLE
  5
A
330
0
100
AcDbSymbolTable
 70
     1
  0
DIMSTYLE
105
27
330
A
100
AcDbSymbolTableRecord
100
AcDbDimStyleTableRecord
  2
ISO-25
 70
     0
  3

  4

  5

  6

  7

 40
1.0
 41
2.5
 42
0.625
 43
3.75
 44
1.25
 45
0.0
 46
0.0
 47
0.0
 48
0.0
140
2.5
141
2.5
142
0.0
143
0.03937007874016
144
1.0
145
0.0
146
1.0
147
0.625
 71
     0
 72
     0
 73
     0
 74
     0
 75
     0
 76
     0
 77
     1
 78
     8
170
     0
171
     3
172
     1
173
     0
174
     0
175
     0
176
     0
177
     0
178
     0
270
     2
271
     2
272
     2
273
     2
274
     3
340
11
275
     0
280
     0
281
     0
282
     0
283
     0
284
     8
285
     0
286
     0
287
     3
288
     0
  0
ENDTAB
  0
TABLE
  2
BLOCK_RECORD
  5
1
330
0
100
AcDbSymbolTable
 70
     1
  0
BLOCK_RECORD
  5
1F
330
1
100
AcDbSymbolTableRecord
100
AcDbBlockTableRecord
  2
*MODEL_SPACE
  0
BLOCK_RECORD
  5
1B
330
1
100
AcDbSymbolTableRecord
100
AcDbBlockTableRecord
  2
*PAPER_SPACE
  0
ENDTAB
  0
ENDSEC
  0
SECTION
  2
BLOCKS
  0
BLOCK
  5
20
330
1F
100
AcDbEntity
  8
0
100
AcDbBlockBegin
  2
*MODEL_SPACE
 70
     0
 10
0.0
 20
0.0
 30
0.0
  3
*MODEL_SPACE
  1

  0
ENDBLK
  5
21
330
1F
100
AcDbEntity
  8
0
100
AcDbBlockEnd
  0
BLOCK
  5
1C
330
1B
100
AcDbEntity
 67
     1
  8
0
100
AcDbBlockBegin
  2
*PAPER_SPACE
  1

  0
ENDBLK
  5
1D
330
1B
100
AcDbEntity
 67
     1
  8
0
100
AcDbBlockEnd
  0
ENDSEC
  0
SECTION
  2
ENTITIES
  0
LWPOLYLINE
  5
100
100
AcDbEntity
  8
Layer_1
 62
7
100
AcDbPolyline
 90
9
 70
1
 10
-10.447688
 20
53.058330
 30
0.0
 10
-10.447688
 20
53.071771
 30
0.0
 10
-10.340161
 20
53.259943
 30
0.0
 10
-10.151990
 20
53.367470
 30
0.0
 10
-8.485326
 20
53.367470
 30
0.0
 10
-8.283714
 20
53.246502
 30
0.0
 10
-8.203069
 20
53.058330
 30
0.0
 10
-8.203069
 20
51.848655
 30
0.0
 10
-10.447688
 20
51.848655
 30
0.0
  0
LWPOLYLINE
  5
101
100
AcDbEntity
  8
Layer_1
 62
7
100
AcDbPolyline
 90
16
 70
1
 10
-4.439636
 20
47.802964
 30
0.0
 10
-4.439636
 20
53.676609
 30
0.0
 10
-4.600926
 20
54.268005
 30
0.0
 10
-5.004151
 20
54.805639
 30
0.0
 10
-5.568666
 20
55.195423
 30
0.0
 10
-6.186944
 20
55.343272
 30
0.0
 10
-12.450372
 20
55.343272
 30
0.0
 10
-13.068651
 20
55.195423
 30
0.0
 10
-13.633166
 20
54.819080
 30
0.0
 10
-14.036391
 20
54.294887
 30
0.0
 10
-14.197681
 20
53.676609
 30
0.0
 10
-14.197681
 20
47.802964
 30
0.0
 10
-10.447688
 20
47.802964
 30
0.0
 10
-10.447688
 20
49.926616
 30
0.0
 10
-8.203069
 20
49.926616
 30
0.0
 10
-8.203069
 20
47.802964
 30
0.0
  0
LWPOLYLINE
  5
102
100
AcDbEntity
  8
Layer_1
 62
7
100
AcDbPolyline
 90
48
 70
1
 10
-3.644526
 20
47.802964
 30
0.0
 10
-3.644526
 20
49.805648
 30
0.0
 10
-2.448292
 20
49.805648
 30
0.0
 10
-2.071949
 20
49.966938
 30
0.0
 10
-1.520875
 20
50.383604
 30
0.0
 10
-1.010123
 20
50.921237
 30
0.0
 10
-0.714425
 20
51.485752
 30
0.0
 10
-1.278940
 20
52.265321
 30
0.0
 10
-1.950981
 20
53.018008
 30
0.0
 10
-2.273561
 20
53.206180
 30
0.0
 10
-2.623023
 20
53.300265
 30
0.0
 10
-2.932162
 20
53.340588
 30
0.0
 10
-3.106893
 20
53.354029
 30
0.0
 10
-3.644526
 20
53.354029
 30
0.0
 10
-3.644526
 20
55.343272
 30
0.0
 10
-0.512812
 20
55.343272
 30
0.0
 10
0.132348
 20
55.181982
 30
0.0
 10
0.616218
 20
54.819080
 30
0.0
 10
0.979120
 20
54.375532
 30
0.0
 10
1.261378
 20
54.026070
 30
0.0
 10
1.368904
 20
54.187360
 30
0.0
 10
1.664603
 20
54.577145
 30
0.0
 10
2.148473
 20
55.020692
 30
0.0
 10
2.793633
 20
55.343272
 30
0.0
 10
5.643089
 20
55.343272
 30
0.0
 10
5.643089
 20
53.354029
 30
0.0
 10
3.989867
 20
53.354029
 30
0.0
 10
3.694169
 20
53.192739
 30
0.0
 10
3.317825
 20
52.816395
 30
0.0
 10
2.995245
 20
52.359407
 30
0.0
 10
2.860837
 20
51.969622
 30
0.0
 10
3.075890
 20
51.257258
 30
0.0
 10
3.613524
 20
50.544894
 30
0.0
 10
4.325888
 20
50.007261
 30
0.0
 10
5.051693
 20
49.792207
 30
0.0
 10
5.643089
 20
49.792207
 30
0.0
 10
5.643089
 20
47.802964
 30
0.0
 10
2.524816
 20
47.802964
 30
0.0
 10
1.987183
 20
47.937372
 30
0.0
 10
1.462990
 20
48.259952
 30
0.0
 10
1.006002
 20
48.690059
 30
0.0
 10
0.629659
 20
49.106725
 30
0.0
 10
0.575895
 20
49.173929
 30
0.0
 10
0.535573
 20
49.227692
 30
0.0
 10
0.011380
 20
48.582532
 30
0.0
 10
-0.499371
 20
48.165867
 30
0.0
 10
-1.198295
 20
47.870168
 30
0.0
 10
-1.950981
 20
47.802964
 30
0.0
  0
LWPOLYLINE
  5
103
100
AcDbEntity
  8
Layer_1
 62
7
100
AcDbPolyline
 90
4
 70
1
 10
6.462351
 20
52.520697
 30
0.0
 10
10.965030
 20
52.520697
 30
0.0
 10
10.965030
 20
50.598657
 30
0.0
 10
6.462351
 20
50.598657
 30
0.0
  0
LWPOLYLINE
  5
104
100
AcDbEntity
  8
Layer_1
 62
7
100
AcDbPolyline
 90
12
 70
1
 10
15.515171
 20
50.087906
 30
0.0
 10
15.582375
 20
49.899734
 30
0.0
 10
15.810869
 20
49.778767
 30
0.0
 10
17.222157
 20
49.778767
 30
0.0
 10
17.383447
 20
49.886293
 30
0.0
 10
17.517855
 20
50.087906
 30
0.0
 10
17.517855
 20
52.937363
 30
0.0
 10
17.437210
 20
53.206180
 30
0.0
 10
17.222157
 20
53.367470
 30
0.0
 10
15.783988
 20
53.367470
 30
0.0
 10
15.582375
 20
53.192739
 30
0.0
 10
15.515171
 20
52.937363
 30
0.0
  0
LWPOLYLINE
  5
105
100
AcDbEntity
  8
Layer_1
 62
7
100
AcDbPolyline
 90
20
 70
1
 10
19.426454
 20
55.343272
 30
0.0
 10
20.138818
 20
55.168541
 30
0.0
 10
20.716774
 20
54.724994
 30
0.0
 10
21.119999
 20
54.106715
 30
0.0
 10
21.267848
 20
53.421233
 30
0.0
 10
21.267848
 20
49.456187
 30
0.0
 10
21.106558
 20
48.837908
 30
0.0
 10
20.703333
 20
48.313716
 30
0.0
 10
20.138818
 20
47.937372
 30
0.0
 10
19.520539
 20
47.802964
 30
0.0
 10
13.512487
 20
47.802964
 30
0.0
 10
12.894209
 20
47.937372
 30
0.0
 10
12.329694
 20
48.313716
 30
0.0
 10
11.926469
 20
48.837908
 30
0.0
 10
11.765179
 20
49.456187
 30
0.0
 10
11.765179
 20
53.421233
 30
0.0
 10
11.913028
 20
54.106715
 30
0.0
 10
12.302812
 20
54.724994
 30
0.0
 10
12.894209
 20
55.168541
 30
0.0
 10
13.606573
 20
55.343272
 30
0.0
  0
LWPOLYLINE
  5
106
100
AcDbEntity
  8
Layer_1
 62
7
100
AcDbPolyline
 90
26
 70
1
 10
22.082070
 20
47.802964
 30
0.0
 10
31.598179
 20
47.802964
 30
0.0
 10
31.598179
 20
49.778767
 30
0.0
 10
25.858944
 20
49.778767
 30
0.0
 10
25.858944
 20
50.625539
 30
0.0
 10
29.850871
 20
50.625539
 30
0.0
 10
30.415386
 20
50.773388
 30
0.0
 10
30.979901
 20
51.176613
 30
0.0
 10
31.423449
 20
51.714247
 30
0.0
 10
31.598179
 20
52.332525
 30
0.0
 10
31.598179
 20
53.501878
 30
0.0
 10
31.450330
 20
54.173920
 30
0.0
 10
31.047105
 20
54.765316
 30
0.0
 10
30.455709
 20
55.181982
 30
0.0
 10
29.756785
 20
55.343272
 30
0.0
 10
22.095511
 20
55.343272
 30
0.0
 10
22.095511
 20
53.367470
 30
0.0
 10
27.552489
 20
53.367470
 30
0.0
 10
27.754101
 20
53.219620
 30
0.0
 10
27.834746
 20
52.964245
 30
0.0
 10
27.834746
 20
52.547579
 30
0.0
 10
23.802496
 20
52.547579
 30
0.0
 10
23.224541
 20
52.440052
 30
0.0
 10
22.673466
 20
52.171235
 30
0.0
 10
22.243360
 20
51.754569
 30
0.0
 10
22.082070
 20
51.230377
 30
0.0
  0
LWPOLYLINE
  5
107
100
AcDbEntity
  8
Layer_1
 62
7
100
AcDbPolyline
 90
12
 70
1
 10
41.333962
 20
53.219620
 30
0.0
 10
42.906540
 20
53.219620
 30
0.0
 10
43.202238
 20
53.098653
 30
0.0
 10
43.376969
 20
52.789514
 30
0.0
 10
43.457614
 20
52.399730
 30
0.0
 10
43.471055
 20
52.009945
 30
0.0
 10
43.471055
 20
51.095968
 30
0.0
 10
43.457614
 20
50.665862
 30
0.0
 10
43.363528
 20
50.249196
 30
0.0
 10
43.148475
 20
49.940057
 30
0.0
 10
42.718368
 20
49.819089
 30
0.0
 10
41.333962
 20
49.819089
 30
0.0
  0
LWPOLYLINE
  5
108
100
AcDbEntity
  8
Layer_1
 62
7
100
AcDbPolyline
 90
12
 70
1
 10
37.570529
 20
47.802964
 30
0.0
 10
45.930727
 20
47.802964
 30
0.0
 10
46.401157
 20
47.937372
 30
0.0
 10
46.817822
 20
48.300275
 30
0.0
 10
47.113521
 20
48.770704
 30
0.0
 10
47.234488
 20
49.281456
 30
0.0
 10
47.234488
 20
53.595964
 30
0.0
 10
47.100080
 20
54.173920
 30
0.0
 10
46.764059
 20
54.738435
 30
0.0
 10
46.293630
 20
55.168541
 30
0.0
 10
45.755997
 20
55.343272
 30
0.0
 10
37.570529
 20
55.343272
 30
0.0
  0
LWPOLYLINE
  5
109
100
AcDbEntity
  8
Layer_1
 62
7
100
AcDbPolyline
 90
30
 70
1
 10
56.687384
 20
55.343272
 30
0.0
 10
56.687384
 20
53.367470
 30
0.0
 10
52.090619
 20
53.367470
 30
0.0
 10
51.875566
 20
53.206180
 30
0.0
 10
51.794921
 20
52.937363
 30
0.0
 10
51.902447
 20
52.655105
 30
0.0
 10
52.184705
 20
52.520697
 30
0.0
 10
56.687384
 20
52.520697
 30
0.0
 10
56.687384
 20
50.598657
 30
0.0
 10
52.090619
 20
50.598657
 30
0.0
 10
51.956211
 20
50.477690
 30
0.0
 10
51.808361
 20
50.276077
 30
0.0
 10
51.794921
 20
50.235755
 30
0.0
 10
51.794921
 20
50.181992
 30
0.0
 10
51.794921
 20
50.128228
 30
0.0
 10
51.808361
 20
50.087906
 30
0.0
 10
51.956211
 20
49.886293
 30
0.0
 10
52.090619
 20
49.778767
 30
0.0
 10
56.687384
 20
49.778767
 30
0.0
 10
56.687384
 20
47.802964
 30
0.0
 10
49.792236
 20
47.802964
 30
0.0
 10
49.173958
 20
47.937372
 30
0.0
 10
48.609443
 20
48.313716
 30
0.0
 10
48.206218
 20
48.837908
 30
0.0
 10
48.044928
 20
49.456187
 30
0.0
 10
48.044928
 20
53.421233
 30
0.0
 10
48.192777
 20
54.106715
 30
0.0
 10
48.582561
 20
54.724994
 30
0.0
 10
49.173958
 20
55.168541
 30
0.0
 10
49.886322
 20
55.343272
 30
0.0
  0
LWPOLYLINE
  5
10a
100
AcDbEntity
  8
Layer_1
 62
7
100
AcDbPolyline
 90
12
 70
1
 10
57.495514
 20
55.343272
 30
0.0
 10
61.258947
 20
55.343272
 30
0.0
 10
61.258947
 20
50.276077
 30
0.0
 10
61.366474
 20
49.899734
 30
0.0
 10
61.769699
 20
49.778767
 30
0.0
 10
66.137970
 20
49.778767
 30
0.0
 10
66.137970
 20
47.802964
 30
0.0
 10
59.041210
 20
47.802964
 30
0.0
 10
58.396050
 20
47.950813
 30
0.0
 10
57.912180
 20
48.354038
 30
0.0
 10
57.603041
 20
48.958876
 30
0.0
 10
57.495514
 20
49.711562
 30
0.0
  0
LWPOLYLINE
  5
10b
100
AcDbEntity
  8
Layer_1
 62
7
100
AcDbPolyline
 90
8
 70
1
 10
73.726059
 20
55.343272
 30
0.0
 10
73.726059
 20
53.367470
 30
0.0
 10
70.957247
 20
53.367470
 30
0.0
 10
70.957247
 20
47.802964
 30
0.0
 10
67.193814
 20
47.802964
 30
0.0
 10
67.193814
 20
53.367470
 30
0.0
 10
64.465324
 20
53.367470
 30
0.0
 10
64.465324
 20
55.343272
 30
0.0
  0
LWPOLYLINE
  5
10c
100
AcDbEntity
  8
Layer_1
 62
7
100
AcDbPolyline
 90
15
 70
1
 10
72.310461
 20
47.789523
 30
0.0
 10
76.719054
 20
47.789523
 30
0.0
 10
80.025499
 20
52.278762
 30
0.0
 10
80.092703
 20
52.372848
 30
0.0
 10
80.186789
 20
52.399730
 30
0.0
 10
80.280875
 20
52.345966
 30
0.0
 10
80.348079
 20
52.305644
 30
0.0
 10
80.348079
 20
47.802964
 30
0.0
 10
84.098072
 20
47.802964
 30
0.0
 10
84.098072
 20
55.343272
 30
0.0
 10
78.560448
 20
55.343272
 30
0.0
 10
78.264750
 20
55.249186
 30
0.0
 10
77.955611
 20
55.047574
 30
0.0
 10
77.700235
 20
54.805639
 30
0.0
 10
77.538945
 20
54.604026
 30
0.0
  0
ENDSEC
  0
SECTION
  2
OBJECTS
  0
DICTIONARY
  5
C
330
0
100
AcDbDictionary
  3
ACAD_GROUP
350
D
  3
ACAD_MLINESTYLE
350
17
  0
DICTIONARY
  5
D
330
C
100
AcDbDictionary
  0
DICTIONARY
  5
1A
330
C
100
AcDbDictionary
  0
DICTIONARY
  5
17
330
C
100
AcDbDictionary
  3
STANDARD
350
18
  0
DICTIONARY
  5
19
330
C
100
AcDbDictionary
  0
ENDSEC
  0
EOF
